<svg xmlns="http://www.w3.org/2000/svg" width="375" viewBox="0 0 375 375" height="375" version="1.0"><defs><clipPath id="a"><path d="M 128.054688 156 L 233 156 L 233 208 L 128.054688 208 Z M 128.054688 156"/></clipPath><clipPath id="b"><path d="M 178 95.800781 L 208 95.800781 L 208 130 L 178 130 Z M 178 95.800781"/></clipPath></defs><path fill="#FFF" d="M-37.5 -37.5H412.5V412.5H-37.5z"/><path fill="#FFF" d="M-37.5 -37.5H412.5V412.5H-37.5z"/><path fill="#FFF" d="M-37.5 -37.5H412.5V412.5H-37.5z"/><path fill="#FFF" d="M 156.332031 182.578125 L 146.195312 167.160156 C 146.195312 167.160156 159.269531 150.257812 164.433594 119.1875 C 164.433594 119.1875 168.191406 119.941406 172.6875 114.089844 L 178.832031 139.46875 L 174.28125 175.53125 L 156.332031 182.578125"/><path fill="#7ED321" d="M 213.671875 182.578125 L 230.046875 182.578125 C 228.5625 178.792969 227.195312 174.894531 225.9375 170.964844 C 222.222656 174.964844 218.113281 178.859375 213.671875 182.578125"/><path fill="#7ED321" d="M 200 165.496094 C 207.550781 159.914062 214.238281 153.644531 219.5625 147.28125 C 215.390625 128.804688 213.691406 114.089844 213.691406 114.089844 C 211.160156 115.15625 208.632812 115.945312 206.152344 116.523438 L 206.152344 127.5625 C 206.152344 128.296875 205.550781 128.894531 204.8125 128.894531 C 204.078125 128.894531 203.480469 128.296875 203.480469 127.5625 L 203.480469 117.066406 C 199.886719 117.699219 196.417969 117.917969 193.191406 117.917969 C 189.132812 117.917969 184.691406 117.570312 180.105469 116.492188 L 180.105469 127.5625 C 180.105469 128.296875 179.503906 128.894531 178.769531 128.894531 C 178.03125 128.894531 177.433594 128.296875 177.433594 127.5625 L 177.433594 115.785156 C 175.859375 115.316406 174.277344 114.757812 172.6875 114.089844 C 172.6875 114.089844 168.308594 152.046875 156.332031 182.578125 L 166.007812 182.578125 C 176.730469 179.792969 188.886719 173.710938 200 165.496094"/><g clip-path="url(#a)"><path fill="#7ED321" d="M 208.492188 179.695312 C 176.84375 203.09375 142.402344 210.234375 131.566406 195.648438 C 130.367188 194.035156 129.507812 192.226562 128.96875 190.25 C 128.953125 194.199219 129.945312 197.695312 132.058594 200.539062 C 142.257812 214.265625 174.679688 207.542969 204.46875 185.519531 C 216.492188 176.632812 226.25 166.613281 232.941406 156.917969 C 226.40625 164.753906 218.136719 172.566406 208.492188 179.695312"/></g><path fill="#FFF" d="M 246.609375 142.003906 C 247.308594 129.054688 244.710938 115.210938 244.710938 115.210938 C 244.710938 115.210938 235.726562 124.871094 224.820312 130.683594 L 232.355469 133.929688 C 227.144531 145.035156 216.4375 157.550781 202.019531 168.210938 C 175.855469 187.550781 147.382812 193.457031 138.421875 181.398438 C 133.203125 174.371094 135.761719 162.796875 143.984375 150.53125 C 132.257812 166.039062 128.054688 181.140625 134.605469 189.953125 C 144.804688 203.683594 177.226562 196.957031 207.015625 174.9375 C 222.726562 163.324219 234.566406 149.773438 240.757812 137.546875 L 246.609375 142.003906"/><g clip-path="url(#b)"><path fill="#FFF" d="M 181.503906 127.722656 L 181.503906 110.382812 C 181.503906 103.957031 186.65625 98.628906 193.101562 98.578125 C 199.597656 98.53125 204.878906 103.769531 204.878906 110.238281 L 204.878906 127.722656 C 204.878906 128.457031 205.476562 129.054688 206.214844 129.054688 C 206.953125 129.054688 207.550781 128.457031 207.550781 127.722656 L 207.550781 110.421875 C 207.550781 102.535156 201.234375 95.992188 193.332031 95.917969 C 185.347656 95.839844 178.832031 102.292969 178.832031 110.238281 L 178.832031 127.722656 C 178.832031 128.457031 179.429688 129.054688 180.167969 129.054688 C 180.902344 129.054688 181.503906 128.457031 181.503906 127.722656"/></g><g fill="#FFF"><g><g><path d="M 2.1875 -30.015625 L 13.125 -30.015625 C 16.1875 -30.015625 18.660156 -29.222656 20.546875 -27.640625 C 22.441406 -26.066406 23.390625 -23.773438 23.390625 -20.765625 C 23.390625 -17.765625 22.429688 -15.40625 20.515625 -13.6875 C 18.597656 -11.976562 16.132812 -11.125 13.125 -11.125 L 9.015625 -11.125 L 9.015625 0 L 2.1875 0 Z M 9.015625 -16.59375 L 10.953125 -16.59375 C 12.472656 -16.59375 13.722656 -16.898438 14.703125 -17.515625 C 15.691406 -18.128906 16.1875 -19.140625 16.1875 -20.546875 C 16.1875 -21.984375 15.691406 -23.007812 14.703125 -23.625 C 13.722656 -24.238281 12.472656 -24.546875 10.953125 -24.546875 L 9.015625 -24.546875 Z M 9.015625 -16.59375" transform="translate(108.187 251.098)"/></g></g></g><g fill="#FFF"><g><g><path d="M 2.1875 0 L 2.1875 -18.65625 L 8.625 -18.65625 L 8.625 -15.96875 L 8.6875 -15.96875 C 8.738281 -16.0625 8.816406 -16.179688 8.921875 -16.328125 C 9.035156 -16.472656 9.273438 -16.726562 9.640625 -17.09375 C 10.003906 -17.457031 10.390625 -17.785156 10.796875 -18.078125 C 11.210938 -18.367188 11.75 -18.628906 12.40625 -18.859375 C 13.0625 -19.085938 13.726562 -19.203125 14.40625 -19.203125 C 15.101562 -19.203125 15.789062 -19.101562 16.46875 -18.90625 C 17.15625 -18.71875 17.65625 -18.523438 17.96875 -18.328125 L 18.484375 -18.046875 L 15.78125 -12.578125 C 14.988281 -13.265625 13.875 -13.609375 12.4375 -13.609375 C 11.664062 -13.609375 11 -13.4375 10.4375 -13.09375 C 9.882812 -12.75 9.488281 -12.332031 9.25 -11.84375 C 9.019531 -11.363281 8.859375 -10.953125 8.765625 -10.609375 C 8.671875 -10.273438 8.625 -10.015625 8.625 -9.828125 L 8.625 0 Z M 2.1875 0" transform="translate(132.413 251.098)"/></g></g></g><g fill="#FFF"><g><g><path d="M 21.0625 -8.4375 L 7.53125 -8.4375 C 7.53125 -7.125 7.953125 -6.148438 8.796875 -5.515625 C 9.648438 -4.890625 10.570312 -4.578125 11.5625 -4.578125 C 12.601562 -4.578125 13.425781 -4.71875 14.03125 -5 C 14.644531 -5.28125 15.335938 -5.832031 16.109375 -6.65625 L 20.765625 -4.328125 C 18.828125 -1.078125 15.601562 0.546875 11.09375 0.546875 C 8.28125 0.546875 5.867188 -0.414062 3.859375 -2.34375 C 1.847656 -4.269531 0.84375 -6.59375 0.84375 -9.3125 C 0.84375 -12.03125 1.847656 -14.359375 3.859375 -16.296875 C 5.867188 -18.234375 8.28125 -19.203125 11.09375 -19.203125 C 14.050781 -19.203125 16.457031 -18.347656 18.3125 -16.640625 C 20.164062 -14.929688 21.09375 -12.488281 21.09375 -9.3125 C 21.09375 -8.875 21.082031 -8.582031 21.0625 -8.4375 Z M 7.71875 -12 L 14.796875 -12 C 14.660156 -12.96875 14.28125 -13.710938 13.65625 -14.234375 C 13.039062 -14.753906 12.25 -15.015625 11.28125 -15.015625 C 10.207031 -15.015625 9.351562 -14.734375 8.71875 -14.171875 C 8.09375 -13.617188 7.757812 -12.894531 7.71875 -12 Z M 7.71875 -12" transform="translate(150.528 251.098)"/></g></g></g><g fill="#FFF"><g><g><path d="M 10.296875 -19.203125 C 11.359375 -19.203125 12.410156 -19.082031 13.453125 -18.84375 C 14.492188 -18.601562 15.269531 -18.359375 15.78125 -18.109375 L 16.546875 -17.75 L 14.4375 -13.53125 C 12.988281 -14.3125 11.609375 -14.703125 10.296875 -14.703125 C 9.566406 -14.703125 9.050781 -14.617188 8.75 -14.453125 C 8.445312 -14.296875 8.296875 -14 8.296875 -13.5625 C 8.296875 -13.46875 8.304688 -13.367188 8.328125 -13.265625 C 8.347656 -13.171875 8.394531 -13.082031 8.46875 -13 C 8.539062 -12.914062 8.609375 -12.84375 8.671875 -12.78125 C 8.734375 -12.71875 8.835938 -12.648438 8.984375 -12.578125 C 9.128906 -12.515625 9.242188 -12.460938 9.328125 -12.421875 C 9.410156 -12.390625 9.550781 -12.335938 9.75 -12.265625 C 9.945312 -12.191406 10.09375 -12.132812 10.1875 -12.09375 C 10.28125 -12.0625 10.441406 -12.007812 10.671875 -11.9375 C 10.898438 -11.863281 11.078125 -11.8125 11.203125 -11.78125 C 11.953125 -11.5625 12.601562 -11.316406 13.15625 -11.046875 C 13.71875 -10.785156 14.304688 -10.425781 14.921875 -9.96875 C 15.546875 -9.507812 16.023438 -8.925781 16.359375 -8.21875 C 16.703125 -7.519531 16.875 -6.71875 16.875 -5.8125 C 16.875 -1.570312 13.925781 0.546875 8.03125 0.546875 C 6.695312 0.546875 5.429688 0.34375 4.234375 -0.0625 C 3.035156 -0.476562 2.171875 -0.894531 1.640625 -1.3125 L 0.84375 -1.96875 L 3.453125 -6.359375 C 3.648438 -6.191406 3.90625 -5.992188 4.21875 -5.765625 C 4.53125 -5.535156 5.097656 -5.21875 5.921875 -4.8125 C 6.753906 -4.414062 7.472656 -4.21875 8.078125 -4.21875 C 9.410156 -4.21875 10.078125 -4.664062 10.078125 -5.5625 C 10.078125 -5.976562 9.90625 -6.300781 9.5625 -6.53125 C 9.226562 -6.757812 8.65625 -7.019531 7.84375 -7.3125 C 7.03125 -7.601562 6.390625 -7.867188 5.921875 -8.109375 C 4.765625 -8.710938 3.84375 -9.394531 3.15625 -10.15625 C 2.476562 -10.925781 2.140625 -11.941406 2.140625 -13.203125 C 2.140625 -15.097656 2.875 -16.570312 4.34375 -17.625 C 5.8125 -18.675781 7.796875 -19.203125 10.296875 -19.203125 Z M 10.296875 -19.203125" transform="translate(172.462 251.098)"/></g></g></g><g fill="#FFF"><g><g><path d="M 3.28125 -18.65625 L 3.28125 -25.609375 L 9.71875 -25.609375 L 9.71875 -18.65625 L 13.640625 -18.65625 L 13.640625 -13.75 L 9.71875 -13.75 L 9.71875 -7.828125 C 9.71875 -6.097656 10.203125 -5.234375 11.171875 -5.234375 C 11.410156 -5.234375 11.660156 -5.28125 11.921875 -5.375 C 12.191406 -5.476562 12.398438 -5.578125 12.546875 -5.671875 L 12.765625 -5.8125 L 14.375 -0.625 C 12.988281 0.15625 11.410156 0.546875 9.640625 0.546875 C 8.429688 0.546875 7.390625 0.332031 6.515625 -0.09375 C 5.640625 -0.519531 4.976562 -1.085938 4.53125 -1.796875 C 4.082031 -2.515625 3.757812 -3.265625 3.5625 -4.046875 C 3.375 -4.835938 3.28125 -5.679688 3.28125 -6.578125 L 3.28125 -13.75 L 0.578125 -13.75 L 0.578125 -18.65625 Z M 3.28125 -18.65625" transform="translate(190.359 251.098)"/></g></g></g><g fill="#FFF"><g><g><path d="M 3.953125 -2.21875 C 1.878906 -4.0625 0.84375 -6.425781 0.84375 -9.3125 C 0.84375 -12.195312 1.921875 -14.566406 4.078125 -16.421875 C 6.234375 -18.273438 8.898438 -19.203125 12.078125 -19.203125 C 15.203125 -19.203125 17.835938 -18.269531 19.984375 -16.40625 C 22.128906 -14.539062 23.203125 -12.175781 23.203125 -9.3125 C 23.203125 -6.445312 22.15625 -4.085938 20.0625 -2.234375 C 17.96875 -0.378906 15.304688 0.546875 12.078125 0.546875 C 8.734375 0.546875 6.023438 -0.375 3.953125 -2.21875 Z M 8.921875 -12.46875 C 8.085938 -11.644531 7.671875 -10.59375 7.671875 -9.3125 C 7.671875 -8.03125 8.070312 -6.984375 8.875 -6.171875 C 9.675781 -5.359375 10.734375 -4.953125 12.046875 -4.953125 C 13.304688 -4.953125 14.34375 -5.363281 15.15625 -6.1875 C 15.96875 -7.007812 16.375 -8.050781 16.375 -9.3125 C 16.375 -10.59375 15.953125 -11.644531 15.109375 -12.46875 C 14.273438 -13.300781 13.253906 -13.71875 12.046875 -13.71875 C 10.804688 -13.71875 9.765625 -13.300781 8.921875 -12.46875 Z M 8.921875 -12.46875" transform="translate(204.727 251.098)"/></g></g></g><g fill="#FFF"><g><g><path d="M 6.328125 -7.78125 C 7.492188 -7.78125 8.484375 -7.375 9.296875 -6.5625 C 10.109375 -5.75 10.515625 -4.757812 10.515625 -3.59375 C 10.515625 -2.457031 10.109375 -1.484375 9.296875 -0.671875 C 8.484375 0.140625 7.492188 0.546875 6.328125 0.546875 C 5.191406 0.546875 4.21875 0.140625 3.40625 -0.671875 C 2.59375 -1.484375 2.1875 -2.457031 2.1875 -3.59375 C 2.1875 -4.757812 2.59375 -5.75 3.40625 -6.5625 C 4.21875 -7.375 5.191406 -7.78125 6.328125 -7.78125 Z M 6.328125 -7.78125" transform="translate(228.77 251.098)"/></g></g></g><g fill="#FFF"><g><g><path d="M 2.796875 -29.0625 C 3.546875 -29.8125 4.441406 -30.1875 5.484375 -30.1875 C 6.535156 -30.1875 7.4375 -29.8125 8.1875 -29.0625 C 8.9375 -28.3125 9.3125 -27.414062 9.3125 -26.375 C 9.3125 -25.332031 8.9375 -24.429688 8.1875 -23.671875 C 7.4375 -22.921875 6.535156 -22.546875 5.484375 -22.546875 C 4.441406 -22.546875 3.546875 -22.921875 2.796875 -23.671875 C 2.046875 -24.429688 1.671875 -25.332031 1.671875 -26.375 C 1.671875 -27.414062 2.046875 -28.3125 2.796875 -29.0625 Z M 2.1875 -18.65625 L 2.1875 0 L 8.625 0 L 8.625 -18.65625 Z M 2.1875 -18.65625" transform="translate(241.466 251.098)"/></g></g></g><g fill="#FFF"><g><g><path d="M 3.28125 -18.65625 L 3.28125 -25.609375 L 9.71875 -25.609375 L 9.71875 -18.65625 L 13.640625 -18.65625 L 13.640625 -13.75 L 9.71875 -13.75 L 9.71875 -7.828125 C 9.71875 -6.097656 10.203125 -5.234375 11.171875 -5.234375 C 11.410156 -5.234375 11.660156 -5.28125 11.921875 -5.375 C 12.191406 -5.476562 12.398438 -5.578125 12.546875 -5.671875 L 12.765625 -5.8125 L 14.375 -0.625 C 12.988281 0.15625 11.410156 0.546875 9.640625 0.546875 C 8.429688 0.546875 7.390625 0.332031 6.515625 -0.09375 C 5.640625 -0.519531 4.976562 -1.085938 4.53125 -1.796875 C 4.082031 -2.515625 3.757812 -3.265625 3.5625 -4.046875 C 3.375 -4.835938 3.28125 -5.679688 3.28125 -6.578125 L 3.28125 -13.75 L 0.578125 -13.75 L 0.578125 -18.65625 Z M 3.28125 -18.65625" transform="translate(252.45 251.098)"/></g></g></g></svg>